<?xml version="1.0" encoding="utf-8"?>
<!-- Generator: Adobe Illustrator 22.1.0, SVG Export Plug-In . SVG Version: 6.00 Build 0)  -->
<svg version="1.1" id="Layer_1" xmlns="http://www.w3.org/2000/svg" xmlns:xlink="http://www.w3.org/1999/xlink" x="0px" y="0px"
	 viewBox="0 0 1000 1000" style="enable-background:new 0 0 1000 1000;" xml:space="preserve">
<style type="text/css">
	.st0{fill:#77C4D3;}
	.st1{fill:#FFFFFF;}
</style>
<g>
	<circle class="st0" cx="500" cy="500" r="464"/>
	<path class="st1" d="M835,292.9c-12.3-12.3-32.2-12.3-44.5,0L441.9,641.5L209.5,409.1c-5.9-5.9-13.8-9.2-22.2-9.2
		s-16.3,3.3-22.2,9.2c-12.3,12.3-12.3,32.2,0,44.5l253.6,253.6c6.1,6.1,14.6,9.5,23.2,9.2c0.3,0,0.7,0,1,0c8.3,0,16.3-3.3,22.2-9.2
		L835,337.3C847.2,325.1,847.2,305.1,835,292.9z"/>
</g>
</svg>
